<svg version="1.0" xmlns="http://www.w3.org/2000/svg"
 width="567.000000pt" height="567.000000pt" viewBox="0 0 567.000000 567.000000"
 preserveAspectRatio="xMidYMid meet">

<g transform="translate(0.000000,567.000000) scale(0.100000,-0.100000)"
fill="#000000" stroke="none">
<path d="M1670 5190 c-104 -19 -194 -67 -266 -142 -55 -56 -41 -34 -504 -838
-80 -140 -224 -390 -320 -555 -415 -719 -392 -671 -393 -810 -1 -156 -27 -103
428 -890 368 -637 396 -686 528 -915 237 -412 253 -434 364 -499 121 -70 32
-66 1303 -68 1244 -2 1214 -3 1326 54 31 15 79 49 109 75 56 51 87 101 382
613 83 143 176 305 208 360 32 55 108 188 170 295 62 107 174 301 249 430 226
388 245 441 226 598 -14 107 -7 93 -275 557 -54 94 -146 253 -205 355 -119
207 -429 743 -583 1010 -136 235 -196 297 -343 352 l-59 23 -1150 1 c-632 1
-1170 -2 -1195 -6z"/>
</g>
</svg>
