
<svg version="1.0" xmlns="http://www.w3.org/2000/svg"
 width="300.000000pt" height="300.000000pt" viewBox="0 0 300.000000 300.000000"
 preserveAspectRatio="xMidYMid meet">
<metadata>
Created by potrace 1.10, written by Peter Selinger 2001-2011
</metadata>
<g transform="translate(0.000000,300.000000) scale(0.100000,-0.100000)"
fill="#000000" stroke="none">
<path d="M860 2741 c-45 -14 -84 -39 -117 -73 -17 -18 -167 -269 -333 -557
-292 -506 -303 -525 -307 -586 -4 -37 0 -78 7 -101 19 -57 596 -1053 633
-1092 18 -19 50 -43 72 -55 40 -22 43 -22 685 -22 642 0 645 0 685 22 22 12
54 36 72 55 33 35 612 1031 631 1087 15 43 15 118 0 162 -19 56 -597 1051
-631 1087 -18 19 -50 43 -72 55 -40 22 -45 22 -670 24 -346 1 -641 -2 -655 -6z
m1307 -56 c62 -31 77 -51 181 -231 44 -77 90 -156 101 -175 12 -19 24 -41 28
-49 4 -8 43 -78 88 -155 306 -526 295 -505 295 -574 0 -64 -10 -86 -133 -298
-182 -313 -372 -641 -395 -683 -13 -25 -32 -53 -41 -64 -9 -10 -16 -21 -15
-25 0 -3 -8 -20 -18 -37 -23 -40 -85 -83 -135 -95 -58 -13 -1204 -11 -1259 2
-68 17 -109 63 -200 224 -13 24 -27 47 -141 245 -49 85 -94 164 -101 175 -6
11 -57 99 -113 195 -153 263 -169 298 -169 362 0 65 3 71 176 368 43 74 95
167 116 205 22 39 52 92 69 118 16 27 40 67 52 90 39 72 140 245 182 309 31
49 52 69 94 90 l53 28 617 0 617 0 51 -25z"/>
</g>
</svg>
